<svg width="216" height="54" viewBox="0 0 216 54" fill="none" xmlns="http://www.w3.org/2000/svg">
<path d="M59.3767 43C58.7687 43 58.2567 42.84 57.8407 42.52C57.4567 42.168 57.2647 41.704 57.2647 41.128V7.384C57.2647 6.84 57.4407 6.392 57.7927 6.04C58.1447 5.688 58.5927 5.512 59.1367 5.512H70.8007C72.7207 5.512 74.4487 5.928 75.9847 6.76C77.5527 7.56 78.7847 8.664 79.6807 10.072C80.6087 11.48 81.0727 13.112 81.0727 14.968C81.0727 16.696 80.6087 18.232 79.6807 19.576C78.7527 20.92 77.5367 21.944 76.0327 22.648C78.1767 23.224 79.9047 24.312 81.2167 25.912C82.5287 27.48 83.1847 29.48 83.1847 31.912C83.1847 34.088 82.6887 36.008 81.6967 37.672C80.7047 39.336 79.3287 40.648 77.5687 41.608C75.8407 42.536 73.8567 43 71.6167 43H59.3767ZM61.0087 39.4H71.6167C73.1527 39.4 74.5127 39.096 75.6967 38.488C76.8807 37.88 77.8087 37.016 78.4807 35.896C79.1527 34.776 79.4887 33.448 79.4887 31.912C79.4887 30.472 79.1527 29.224 78.4807 28.168C77.8087 27.08 76.8807 26.248 75.6967 25.672C74.5127 25.064 73.1527 24.76 71.6167 24.76H61.0087V39.4ZM61.0087 21.16H70.8007C72.7207 21.16 74.3047 20.616 75.5527 19.528C76.8007 18.44 77.4247 16.92 77.4247 14.968C77.4247 13.048 76.8007 11.592 75.5527 10.6C74.3047 9.608 72.7207 9.112 70.8007 9.112H61.0087V21.16ZM92.0797 43C91.5037 43 91.0397 42.84 90.6877 42.52C90.3677 42.168 90.2077 41.704 90.2077 41.128V18.616C90.2077 18.04 90.3677 17.592 90.6877 17.272C91.0397 16.92 91.5037 16.744 92.0797 16.744C92.6237 16.744 93.0557 16.92 93.3757 17.272C93.7277 17.592 93.9037 18.04 93.9037 18.616V41.128C93.9037 41.704 93.7277 42.168 93.3757 42.52C93.0557 42.84 92.6237 43 92.0797 43ZM92.0317 11.752C91.3277 11.752 90.7197 11.496 90.2077 10.984C89.6957 10.472 89.4397 9.848 89.4397 9.112C89.4397 8.312 89.6957 7.688 90.2077 7.24C90.7517 6.76 91.3757 6.52 92.0797 6.52C92.7517 6.52 93.3437 6.76 93.8557 7.24C94.3997 7.688 94.6717 8.312 94.6717 9.112C94.6717 9.848 94.4157 10.472 93.9037 10.984C93.3917 11.496 92.7677 11.752 92.0317 11.752ZM111.763 43.24C109.875 43.24 108.003 42.92 106.147 42.28C104.291 41.64 102.787 40.68 101.635 39.4C101.283 39.016 101.139 38.584 101.203 38.104C101.267 37.624 101.507 37.208 101.923 36.856C102.371 36.536 102.835 36.408 103.315 36.472C103.795 36.536 104.195 36.744 104.515 37.096C105.283 37.992 106.291 38.68 107.539 39.16C108.819 39.64 110.227 39.88 111.763 39.88C114.131 39.88 115.843 39.48 116.899 38.68C117.955 37.848 118.499 36.856 118.531 35.704C118.531 34.552 117.987 33.608 116.899 32.872C115.811 32.104 114.019 31.512 111.523 31.096C108.291 30.584 105.923 29.688 104.419 28.408C102.915 27.128 102.163 25.608 102.163 23.848C102.163 22.216 102.595 20.856 103.459 19.768C104.323 18.68 105.475 17.864 106.915 17.32C108.355 16.776 109.939 16.504 111.667 16.504C113.811 16.504 115.651 16.872 117.187 17.608C118.755 18.344 120.019 19.336 120.979 20.584C121.299 21 121.427 21.432 121.363 21.88C121.299 22.328 121.043 22.696 120.595 22.984C120.211 23.208 119.763 23.288 119.251 23.224C118.771 23.128 118.355 22.888 118.003 22.504C117.203 21.576 116.275 20.904 115.219 20.488C114.163 20.04 112.947 19.816 111.571 19.816C109.811 19.816 108.403 20.184 107.347 20.92C106.291 21.624 105.763 22.52 105.763 23.608C105.763 24.344 105.955 24.984 106.339 25.528C106.755 26.072 107.443 26.552 108.403 26.968C109.395 27.384 110.771 27.736 112.531 28.024C114.931 28.408 116.819 28.984 118.195 29.752C119.603 30.488 120.595 31.368 121.171 32.392C121.779 33.384 122.083 34.472 122.083 35.656C122.083 37.16 121.635 38.488 120.739 39.64C119.875 40.76 118.659 41.64 117.091 42.28C115.555 42.92 113.779 43.24 111.763 43.24ZM139.462 43.24C136.934 43.24 134.678 42.664 132.694 41.512C130.742 40.328 129.19 38.728 128.038 36.712C126.918 34.696 126.358 32.424 126.358 29.896C126.358 27.336 126.902 25.048 127.99 23.032C129.078 21.016 130.566 19.432 132.454 18.28C134.342 17.096 136.518 16.504 138.982 16.504C140.934 16.504 142.726 16.888 144.358 17.656C146.022 18.424 147.478 19.576 148.726 21.112C149.078 21.496 149.206 21.912 149.11 22.36C149.014 22.776 148.742 23.144 148.294 23.464C147.942 23.72 147.542 23.816 147.094 23.752C146.678 23.656 146.31 23.416 145.99 23.032C144.134 20.92 141.798 19.864 138.982 19.864C137.19 19.864 135.606 20.296 134.23 21.16C132.886 22.024 131.83 23.208 131.062 24.712C130.326 26.216 129.958 27.944 129.958 29.896C129.958 31.816 130.358 33.528 131.158 35.032C131.958 36.536 133.078 37.72 134.518 38.584C135.958 39.448 137.606 39.88 139.462 39.88C140.71 39.88 141.846 39.72 142.87 39.4C143.926 39.048 144.854 38.52 145.654 37.816C146.038 37.496 146.438 37.32 146.854 37.288C147.27 37.256 147.654 37.384 148.006 37.672C148.39 38.024 148.598 38.424 148.63 38.872C148.694 39.32 148.55 39.704 148.198 40.024C145.862 42.168 142.95 43.24 139.462 43.24ZM167.047 43.288C164.775 43.288 162.743 42.824 160.951 41.896C159.159 40.936 157.735 39.544 156.679 37.72C155.655 35.896 155.143 33.672 155.143 31.048V18.568C155.143 18.056 155.319 17.624 155.671 17.272C156.023 16.92 156.455 16.744 156.967 16.744C157.511 16.744 157.959 16.92 158.311 17.272C158.663 17.624 158.839 18.056 158.839 18.568V31.048C158.839 33.032 159.207 34.664 159.943 35.944C160.711 37.224 161.735 38.184 163.015 38.824C164.327 39.464 165.799 39.784 167.431 39.784C168.999 39.784 170.407 39.48 171.655 38.872C172.935 38.264 173.943 37.432 174.679 36.376C175.415 35.32 175.783 34.12 175.783 32.776H178.423C178.327 34.792 177.767 36.6 176.743 38.2C175.751 39.768 174.407 41.016 172.711 41.944C171.015 42.84 169.127 43.288 167.047 43.288ZM177.607 43C177.063 43 176.615 42.84 176.263 42.52C175.943 42.168 175.783 41.704 175.783 41.128V18.568C175.783 18.024 175.943 17.592 176.263 17.272C176.615 16.92 177.063 16.744 177.607 16.744C178.151 16.744 178.599 16.92 178.951 17.272C179.303 17.592 179.479 18.024 179.479 18.568V41.128C179.479 41.704 179.303 42.168 178.951 42.52C178.599 42.84 178.151 43 177.607 43ZM190.028 43C189.452 43 188.988 42.84 188.636 42.52C188.316 42.168 188.156 41.704 188.156 41.128V18.616C188.156 18.04 188.316 17.592 188.636 17.272C188.988 16.92 189.452 16.744 190.028 16.744C190.572 16.744 191.004 16.92 191.324 17.272C191.676 17.592 191.852 18.04 191.852 18.616V41.128C191.852 41.704 191.676 42.168 191.324 42.52C191.004 42.84 190.572 43 190.028 43ZM189.98 11.752C189.276 11.752 188.668 11.496 188.156 10.984C187.644 10.472 187.388 9.848 187.388 9.112C187.388 8.312 187.644 7.688 188.156 7.24C188.7 6.76 189.324 6.52 190.028 6.52C190.7 6.52 191.292 6.76 191.804 7.24C192.348 7.688 192.62 8.312 192.62 9.112C192.62 9.848 192.364 10.472 191.852 10.984C191.34 11.496 190.716 11.752 189.98 11.752ZM210.815 43C209.119 43 207.599 42.6 206.255 41.8C204.943 41 203.903 39.912 203.135 38.536C202.367 37.128 201.983 35.528 201.983 33.736V10.264C201.983 9.72 202.143 9.272 202.463 8.92C202.815 8.568 203.263 8.392 203.807 8.392C204.351 8.392 204.799 8.568 205.151 8.92C205.503 9.272 205.679 9.72 205.679 10.264V33.736C205.679 35.368 206.159 36.712 207.119 37.768C208.079 38.792 209.311 39.304 210.815 39.304H212.111C212.623 39.304 213.039 39.48 213.359 39.832C213.679 40.184 213.839 40.632 213.839 41.176C213.839 41.72 213.647 42.168 213.263 42.52C212.879 42.84 212.399 43 211.823 43H210.815ZM198.863 20.92C198.383 20.92 197.983 20.776 197.663 20.488C197.343 20.168 197.183 19.784 197.183 19.336C197.183 18.856 197.343 18.472 197.663 18.184C197.983 17.864 198.383 17.704 198.863 17.704H211.103C211.583 17.704 211.983 17.864 212.303 18.184C212.623 18.472 212.783 18.856 212.783 19.336C212.783 19.784 212.623 20.168 212.303 20.488C211.983 20.776 211.583 20.92 211.103 20.92H198.863Z" fill="black"/>
<path d="M0 27L7.71846 9.79971L25.0617 5.55159L38.9699 17.4546V36.5454L25.0617 48.4484L7.71846 44.2003L0 27Z" fill="#FD8484"/>
</svg>
